<mxfile host="app.diagrams.net" agent="Mozilla/5.0 (Windows NT 10.0; Win64; x64) AppleWebKit/537.36 (KHTML, like Gecko) Chrome/138.0.0.0 Safari/537.36" version="28.0.7">
  <diagram name="Halaman-1" id="AR8Spjh0UXJ9Vn7z1d0l">
    <mxGraphModel dx="1042" dy="1777" grid="1" gridSize="10" guides="1" tooltips="1" connect="1" arrows="1" fold="1" page="1" pageScale="1" pageWidth="827" pageHeight="1169" math="0" shadow="0">
      <root>
        <mxCell id="0" />
        <mxCell id="1" parent="0" />
        <mxCell id="4vs3T1weUWw03hKmJ2pg-3" value="user" style="whiteSpace=wrap;html=1;align=center;" parent="1" vertex="1">
          <mxGeometry x="337" y="-774" width="100" height="40" as="geometry" />
        </mxCell>
        <mxCell id="grffc1_wKBLmNfHmWr4K-2" value="" style="rounded=0;orthogonalLoop=1;jettySize=auto;html=1;endArrow=none;endFill=0;" parent="1" source="4vs3T1weUWw03hKmJ2pg-5" edge="1">
          <mxGeometry relative="1" as="geometry">
            <mxPoint x="377" y="-774" as="targetPoint" />
          </mxGeometry>
        </mxCell>
        <mxCell id="4vs3T1weUWw03hKmJ2pg-5" value="id_user" style="ellipse;whiteSpace=wrap;html=1;align=center;" parent="1" vertex="1">
          <mxGeometry x="327" y="-884" width="100" height="40" as="geometry" />
        </mxCell>
        <mxCell id="grffc1_wKBLmNfHmWr4K-7" style="rounded=0;orthogonalLoop=1;jettySize=auto;html=1;exitX=1;exitY=0.5;exitDx=0;exitDy=0;endArrow=none;endFill=0;" parent="1" source="4vs3T1weUWw03hKmJ2pg-6" edge="1">
          <mxGeometry relative="1" as="geometry">
            <mxPoint x="377" y="-774" as="targetPoint" />
          </mxGeometry>
        </mxCell>
        <mxCell id="4vs3T1weUWw03hKmJ2pg-6" value="name" style="ellipse;whiteSpace=wrap;html=1;align=center;" parent="1" vertex="1">
          <mxGeometry x="247" y="-850" width="100" height="40" as="geometry" />
        </mxCell>
        <mxCell id="grffc1_wKBLmNfHmWr4K-4" style="rounded=0;orthogonalLoop=1;jettySize=auto;html=1;entryX=0;entryY=0.5;entryDx=0;entryDy=0;endArrow=none;endFill=0;exitX=1;exitY=0.5;exitDx=0;exitDy=0;" parent="1" source="4vs3T1weUWw03hKmJ2pg-7" target="4vs3T1weUWw03hKmJ2pg-3" edge="1">
          <mxGeometry relative="1" as="geometry">
            <mxPoint x="285.25995225826955" y="-773.9714285714285" as="sourcePoint" />
            <mxPoint x="329" y="-754" as="targetPoint" />
          </mxGeometry>
        </mxCell>
        <mxCell id="4vs3T1weUWw03hKmJ2pg-7" value="email" style="ellipse;whiteSpace=wrap;html=1;align=center;" parent="1" vertex="1">
          <mxGeometry x="200" y="-804" width="100" height="40" as="geometry" />
        </mxCell>
        <mxCell id="grffc1_wKBLmNfHmWr4K-5" style="rounded=0;orthogonalLoop=1;jettySize=auto;html=1;exitX=1;exitY=0.5;exitDx=0;exitDy=0;entryX=0;entryY=0.5;entryDx=0;entryDy=0;endArrow=none;endFill=0;" parent="1" source="4vs3T1weUWw03hKmJ2pg-8" target="4vs3T1weUWw03hKmJ2pg-3" edge="1">
          <mxGeometry relative="1" as="geometry">
            <mxPoint x="329" y="-754" as="targetPoint" />
            <mxPoint x="292" y="-734" as="sourcePoint" />
          </mxGeometry>
        </mxCell>
        <mxCell id="4vs3T1weUWw03hKmJ2pg-8" value="gender" style="ellipse;whiteSpace=wrap;html=1;align=center;" parent="1" vertex="1">
          <mxGeometry x="200" y="-754" width="100" height="40" as="geometry" />
        </mxCell>
        <mxCell id="4vs3T1weUWw03hKmJ2pg-9" value="phone" style="ellipse;whiteSpace=wrap;html=1;align=center;" parent="1" vertex="1">
          <mxGeometry x="247" y="-712" width="100" height="40" as="geometry" />
        </mxCell>
        <mxCell id="grffc1_wKBLmNfHmWr4K-8" value="" style="rounded=0;orthogonalLoop=1;jettySize=auto;html=1;endArrow=none;endFill=0;" parent="1" source="4vs3T1weUWw03hKmJ2pg-10" edge="1">
          <mxGeometry relative="1" as="geometry">
            <mxPoint x="377" y="-734" as="targetPoint" />
          </mxGeometry>
        </mxCell>
        <mxCell id="4vs3T1weUWw03hKmJ2pg-10" value="password" style="ellipse;whiteSpace=wrap;html=1;align=center;" parent="1" vertex="1">
          <mxGeometry x="327" y="-676" width="100" height="40" as="geometry" />
        </mxCell>
        <mxCell id="grffc1_wKBLmNfHmWr4K-1" value="produk" style="whiteSpace=wrap;html=1;align=center;" parent="1" vertex="1">
          <mxGeometry x="759" y="-774" width="100" height="40" as="geometry" />
        </mxCell>
        <mxCell id="grffc1_wKBLmNfHmWr4K-6" style="rounded=0;orthogonalLoop=1;jettySize=auto;html=1;exitX=1;exitY=0.5;exitDx=0;exitDy=0;entryX=0.4;entryY=1;entryDx=0;entryDy=0;entryPerimeter=0;endArrow=none;endFill=0;" parent="1" source="4vs3T1weUWw03hKmJ2pg-9" target="4vs3T1weUWw03hKmJ2pg-3" edge="1">
          <mxGeometry relative="1" as="geometry" />
        </mxCell>
        <mxCell id="grffc1_wKBLmNfHmWr4K-19" style="rounded=0;orthogonalLoop=1;jettySize=auto;html=1;entryX=0.5;entryY=0;entryDx=0;entryDy=0;endArrow=none;endFill=0;" parent="1" source="grffc1_wKBLmNfHmWr4K-9" target="grffc1_wKBLmNfHmWr4K-1" edge="1">
          <mxGeometry relative="1" as="geometry" />
        </mxCell>
        <mxCell id="grffc1_wKBLmNfHmWr4K-9" value="id_produk" style="ellipse;whiteSpace=wrap;html=1;align=center;" parent="1" vertex="1">
          <mxGeometry x="694" y="-850" width="100" height="40" as="geometry" />
        </mxCell>
        <mxCell id="grffc1_wKBLmNfHmWr4K-22" style="rounded=0;orthogonalLoop=1;jettySize=auto;html=1;entryX=0.5;entryY=1;entryDx=0;entryDy=0;endArrow=none;endFill=0;" parent="1" source="grffc1_wKBLmNfHmWr4K-10" target="grffc1_wKBLmNfHmWr4K-1" edge="1">
          <mxGeometry relative="1" as="geometry" />
        </mxCell>
        <mxCell id="grffc1_wKBLmNfHmWr4K-10" value="id_tutor" style="ellipse;whiteSpace=wrap;html=1;align=center;" parent="1" vertex="1">
          <mxGeometry x="876" y="-676" width="100" height="40" as="geometry" />
        </mxCell>
        <mxCell id="grffc1_wKBLmNfHmWr4K-17" style="rounded=0;orthogonalLoop=1;jettySize=auto;html=1;endArrow=none;endFill=0;entryX=0.5;entryY=0;entryDx=0;entryDy=0;exitX=0.5;exitY=1;exitDx=0;exitDy=0;" parent="1" source="grffc1_wKBLmNfHmWr4K-11" target="grffc1_wKBLmNfHmWr4K-1" edge="1">
          <mxGeometry relative="1" as="geometry">
            <mxPoint x="804" y="-775" as="targetPoint" />
            <mxPoint x="779" y="-815" as="sourcePoint" />
          </mxGeometry>
        </mxCell>
        <mxCell id="grffc1_wKBLmNfHmWr4K-11" value="image_course" style="ellipse;whiteSpace=wrap;html=1;align=center;" parent="1" vertex="1">
          <mxGeometry x="817" y="-924" width="100" height="40" as="geometry" />
        </mxCell>
        <mxCell id="grffc1_wKBLmNfHmWr4K-15" style="rounded=0;orthogonalLoop=1;jettySize=auto;html=1;entryX=0.5;entryY=0;entryDx=0;entryDy=0;endArrow=none;endFill=0;exitX=0;exitY=1;exitDx=0;exitDy=0;" parent="1" source="grffc1_wKBLmNfHmWr4K-12" target="grffc1_wKBLmNfHmWr4K-1" edge="1">
          <mxGeometry relative="1" as="geometry" />
        </mxCell>
        <mxCell id="grffc1_wKBLmNfHmWr4K-12" value="title" style="ellipse;whiteSpace=wrap;html=1;align=center;" parent="1" vertex="1">
          <mxGeometry x="863" y="-864" width="100" height="40" as="geometry" />
        </mxCell>
        <mxCell id="grffc1_wKBLmNfHmWr4K-16" style="rounded=0;orthogonalLoop=1;jettySize=auto;html=1;exitX=0;exitY=0;exitDx=0;exitDy=0;endArrow=none;endFill=0;entryX=0.5;entryY=1;entryDx=0;entryDy=0;" parent="1" source="grffc1_wKBLmNfHmWr4K-13" target="grffc1_wKBLmNfHmWr4K-1" edge="1">
          <mxGeometry relative="1" as="geometry">
            <mxPoint x="754" y="-755" as="targetPoint" />
          </mxGeometry>
        </mxCell>
        <mxCell id="grffc1_wKBLmNfHmWr4K-13" value="description" style="ellipse;whiteSpace=wrap;html=1;align=center;" parent="1" vertex="1">
          <mxGeometry x="987" y="-694" width="100" height="40" as="geometry" />
        </mxCell>
        <mxCell id="grffc1_wKBLmNfHmWr4K-20" style="rounded=0;orthogonalLoop=1;jettySize=auto;html=1;entryX=0.5;entryY=1;entryDx=0;entryDy=0;endArrow=none;endFill=0;" parent="1" source="grffc1_wKBLmNfHmWr4K-14" target="grffc1_wKBLmNfHmWr4K-1" edge="1">
          <mxGeometry relative="1" as="geometry" />
        </mxCell>
        <mxCell id="grffc1_wKBLmNfHmWr4K-14" value="price" style="ellipse;whiteSpace=wrap;html=1;align=center;" parent="1" vertex="1">
          <mxGeometry x="764" y="-684" width="100" height="40" as="geometry" />
        </mxCell>
        <mxCell id="grffc1_wKBLmNfHmWr4K-23" value="tutor" style="whiteSpace=wrap;html=1;align=center;" parent="1" vertex="1">
          <mxGeometry x="1047" y="-900" width="100" height="40" as="geometry" />
        </mxCell>
        <mxCell id="grffc1_wKBLmNfHmWr4K-30" style="rounded=0;orthogonalLoop=1;jettySize=auto;html=1;exitX=0.5;exitY=1;exitDx=0;exitDy=0;endArrow=none;endFill=0;entryX=0.5;entryY=0;entryDx=0;entryDy=0;" parent="1" source="grffc1_wKBLmNfHmWr4K-24" target="grffc1_wKBLmNfHmWr4K-23" edge="1">
          <mxGeometry relative="1" as="geometry">
            <mxPoint x="1171.6446609406958" y="-925.8578643762785" as="sourcePoint" />
            <mxPoint x="1097" y="-900" as="targetPoint" />
          </mxGeometry>
        </mxCell>
        <mxCell id="grffc1_wKBLmNfHmWr4K-24" value="id_tutor" style="ellipse;whiteSpace=wrap;html=1;align=center;" parent="1" vertex="1">
          <mxGeometry x="957" y="-974" width="100" height="40" as="geometry" />
        </mxCell>
        <mxCell id="grffc1_wKBLmNfHmWr4K-31" style="rounded=0;orthogonalLoop=1;jettySize=auto;html=1;exitX=0.5;exitY=1;exitDx=0;exitDy=0;endArrow=none;endFill=0;entryX=0.5;entryY=0;entryDx=0;entryDy=0;" parent="1" source="grffc1_wKBLmNfHmWr4K-25" target="grffc1_wKBLmNfHmWr4K-23" edge="1">
          <mxGeometry relative="1" as="geometry">
            <mxPoint x="1127" y="-960" as="sourcePoint" />
          </mxGeometry>
        </mxCell>
        <mxCell id="grffc1_wKBLmNfHmWr4K-25" value="name_tutor" style="ellipse;whiteSpace=wrap;html=1;align=center;" parent="1" vertex="1">
          <mxGeometry x="1124.5" y="-1004" width="100" height="46" as="geometry" />
        </mxCell>
        <mxCell id="grffc1_wKBLmNfHmWr4K-33" style="rounded=0;orthogonalLoop=1;jettySize=auto;html=1;endArrow=none;endFill=0;startArrow=none;startFill=0;entryX=0.5;entryY=0;entryDx=0;entryDy=0;exitX=0;exitY=1;exitDx=0;exitDy=0;" parent="1" source="grffc1_wKBLmNfHmWr4K-26" target="grffc1_wKBLmNfHmWr4K-23" edge="1">
          <mxGeometry relative="1" as="geometry">
            <mxPoint x="1047" y="-920" as="sourcePoint" />
            <mxPoint x="1077" y="-906" as="targetPoint" />
          </mxGeometry>
        </mxCell>
        <mxCell id="grffc1_wKBLmNfHmWr4K-26" value="role_tutor" style="ellipse;whiteSpace=wrap;html=1;align=center;" parent="1" vertex="1">
          <mxGeometry x="1207" y="-964" width="100" height="40" as="geometry" />
        </mxCell>
        <mxCell id="grffc1_wKBLmNfHmWr4K-36" style="rounded=0;orthogonalLoop=1;jettySize=auto;html=1;exitX=1;exitY=1;exitDx=0;exitDy=0;entryX=0.5;entryY=0;entryDx=0;entryDy=0;endArrow=none;endFill=0;" parent="1" source="grffc1_wKBLmNfHmWr4K-34" target="grffc1_wKBLmNfHmWr4K-1" edge="1">
          <mxGeometry relative="1" as="geometry" />
        </mxCell>
        <mxCell id="grffc1_wKBLmNfHmWr4K-34" value="id_user" style="ellipse;whiteSpace=wrap;html=1;align=center;" parent="1" vertex="1">
          <mxGeometry x="747" y="-890" width="100" height="40" as="geometry" />
        </mxCell>
        <mxCell id="fIigrEEgvfNoZk3N0VOl-100" value="review" style="whiteSpace=wrap;html=1;align=center;" parent="1" vertex="1">
          <mxGeometry x="551" y="-890" width="100" height="40" as="geometry" />
        </mxCell>
        <mxCell id="fIigrEEgvfNoZk3N0VOl-106" style="rounded=0;orthogonalLoop=1;jettySize=auto;html=1;entryX=0.5;entryY=0;entryDx=0;entryDy=0;endArrow=none;endFill=0;exitX=1;exitY=0.5;exitDx=0;exitDy=0;" parent="1" source="fIigrEEgvfNoZk3N0VOl-101" target="fIigrEEgvfNoZk3N0VOl-100" edge="1">
          <mxGeometry relative="1" as="geometry">
            <mxPoint x="621" y="-900" as="targetPoint" />
          </mxGeometry>
        </mxCell>
        <mxCell id="fIigrEEgvfNoZk3N0VOl-101" value="id_review" style="ellipse;whiteSpace=wrap;html=1;align=center;" parent="1" vertex="1">
          <mxGeometry x="457" y="-940" width="100" height="40" as="geometry" />
        </mxCell>
        <mxCell id="fIigrEEgvfNoZk3N0VOl-107" style="rounded=0;orthogonalLoop=1;jettySize=auto;html=1;exitX=1;exitY=0.5;exitDx=0;exitDy=0;entryX=0.5;entryY=0;entryDx=0;entryDy=0;endArrow=none;endFill=0;" parent="1" source="fIigrEEgvfNoZk3N0VOl-102" target="fIigrEEgvfNoZk3N0VOl-100" edge="1">
          <mxGeometry relative="1" as="geometry" />
        </mxCell>
        <mxCell id="fIigrEEgvfNoZk3N0VOl-102" value="id_user" style="ellipse;whiteSpace=wrap;html=1;align=center;" parent="1" vertex="1">
          <mxGeometry x="467" y="-990" width="100" height="40" as="geometry" />
        </mxCell>
        <mxCell id="fIigrEEgvfNoZk3N0VOl-112" style="rounded=0;orthogonalLoop=1;jettySize=auto;html=1;exitX=0.5;exitY=0;exitDx=0;exitDy=0;endArrow=none;endFill=0;entryX=0.5;entryY=0;entryDx=0;entryDy=0;" parent="1" source="fIigrEEgvfNoZk3N0VOl-103" target="fIigrEEgvfNoZk3N0VOl-100" edge="1">
          <mxGeometry relative="1" as="geometry">
            <mxPoint x="601" y="-848" as="targetPoint" />
          </mxGeometry>
        </mxCell>
        <mxCell id="fIigrEEgvfNoZk3N0VOl-103" value="id_produk" style="ellipse;whiteSpace=wrap;html=1;align=center;" parent="1" vertex="1">
          <mxGeometry x="551" y="-1030" width="100" height="40" as="geometry" />
        </mxCell>
        <mxCell id="fIigrEEgvfNoZk3N0VOl-110" style="rounded=0;orthogonalLoop=1;jettySize=auto;html=1;exitX=0.5;exitY=0;exitDx=0;exitDy=0;entryX=0.5;entryY=0;entryDx=0;entryDy=0;endArrow=none;endFill=0;" parent="1" source="fIigrEEgvfNoZk3N0VOl-104" target="fIigrEEgvfNoZk3N0VOl-100" edge="1">
          <mxGeometry relative="1" as="geometry" />
        </mxCell>
        <mxCell id="fIigrEEgvfNoZk3N0VOl-104" value="rating" style="ellipse;whiteSpace=wrap;html=1;align=center;" parent="1" vertex="1">
          <mxGeometry x="620" y="-990" width="100" height="40" as="geometry" />
        </mxCell>
        <mxCell id="fIigrEEgvfNoZk3N0VOl-111" style="rounded=0;orthogonalLoop=1;jettySize=auto;html=1;endArrow=none;endFill=0;entryX=0.5;entryY=0;entryDx=0;entryDy=0;exitX=0;exitY=0.5;exitDx=0;exitDy=0;" parent="1" source="fIigrEEgvfNoZk3N0VOl-105" target="fIigrEEgvfNoZk3N0VOl-100" edge="1">
          <mxGeometry relative="1" as="geometry">
            <mxPoint x="601" y="-890" as="targetPoint" />
          </mxGeometry>
        </mxCell>
        <mxCell id="fIigrEEgvfNoZk3N0VOl-105" value="review" style="ellipse;whiteSpace=wrap;html=1;align=center;" parent="1" vertex="1">
          <mxGeometry x="647" y="-940" width="100" height="40" as="geometry" />
        </mxCell>
        <mxCell id="fIigrEEgvfNoZk3N0VOl-114" value="pembayaran" style="whiteSpace=wrap;html=1;align=center;" parent="1" vertex="1">
          <mxGeometry x="387" y="-296.5" width="100" height="40" as="geometry" />
        </mxCell>
        <mxCell id="fIigrEEgvfNoZk3N0VOl-115" style="rounded=0;orthogonalLoop=1;jettySize=auto;html=1;entryX=0.25;entryY=0;entryDx=0;entryDy=0;endArrow=none;endFill=0;" parent="1" source="fIigrEEgvfNoZk3N0VOl-116" target="fIigrEEgvfNoZk3N0VOl-114" edge="1">
          <mxGeometry relative="1" as="geometry">
            <mxPoint x="457" y="-306.5" as="targetPoint" />
          </mxGeometry>
        </mxCell>
        <mxCell id="fIigrEEgvfNoZk3N0VOl-116" value="id_pembayaran" style="ellipse;whiteSpace=wrap;html=1;align=center;" parent="1" vertex="1">
          <mxGeometry x="317" y="-351.5" width="100" height="40" as="geometry" />
        </mxCell>
        <mxCell id="fIigrEEgvfNoZk3N0VOl-119" style="rounded=0;orthogonalLoop=1;jettySize=auto;html=1;exitX=1;exitY=1;exitDx=0;exitDy=0;entryX=-0.003;entryY=0.503;entryDx=0;entryDy=0;entryPerimeter=0;endArrow=none;endFill=0;" parent="1" source="fIigrEEgvfNoZk3N0VOl-120" target="fIigrEEgvfNoZk3N0VOl-114" edge="1">
          <mxGeometry relative="1" as="geometry">
            <mxPoint x="387" y="-276.5" as="targetPoint" />
          </mxGeometry>
        </mxCell>
        <mxCell id="fIigrEEgvfNoZk3N0VOl-120" value="id_order" style="ellipse;whiteSpace=wrap;html=1;align=center;" parent="1" vertex="1">
          <mxGeometry x="212" y="-342.5" width="100" height="40" as="geometry" />
        </mxCell>
        <mxCell id="fIigrEEgvfNoZk3N0VOl-121" style="rounded=0;orthogonalLoop=1;jettySize=auto;html=1;exitX=1;exitY=0.5;exitDx=0;exitDy=0;entryX=0;entryY=0.5;entryDx=0;entryDy=0;endArrow=none;endFill=0;" parent="1" source="fIigrEEgvfNoZk3N0VOl-122" target="fIigrEEgvfNoZk3N0VOl-114" edge="1">
          <mxGeometry relative="1" as="geometry" />
        </mxCell>
        <mxCell id="fIigrEEgvfNoZk3N0VOl-122" value="metode_bayar" style="ellipse;whiteSpace=wrap;html=1;align=center;" parent="1" vertex="1">
          <mxGeometry x="200" y="-296.5" width="100" height="40" as="geometry" />
        </mxCell>
        <mxCell id="fIigrEEgvfNoZk3N0VOl-123" style="rounded=0;orthogonalLoop=1;jettySize=auto;html=1;entryX=0.5;entryY=1;entryDx=0;entryDy=0;endArrow=none;endFill=0;" parent="1" source="fIigrEEgvfNoZk3N0VOl-124" target="fIigrEEgvfNoZk3N0VOl-114" edge="1">
          <mxGeometry relative="1" as="geometry" />
        </mxCell>
        <mxCell id="fIigrEEgvfNoZk3N0VOl-124" value="total_bayar" style="ellipse;whiteSpace=wrap;html=1;align=center;" parent="1" vertex="1">
          <mxGeometry x="237" y="-251.5" width="100" height="40" as="geometry" />
        </mxCell>
        <mxCell id="fIigrEEgvfNoZk3N0VOl-125" value="order" style="whiteSpace=wrap;html=1;align=center;" parent="1" vertex="1">
          <mxGeometry x="388" y="-555.5" width="100" height="40" as="geometry" />
        </mxCell>
        <mxCell id="fIigrEEgvfNoZk3N0VOl-126" style="rounded=0;orthogonalLoop=1;jettySize=auto;html=1;endArrow=none;endFill=0;entryX=0.25;entryY=0;entryDx=0;entryDy=0;exitX=1;exitY=1;exitDx=0;exitDy=0;" parent="1" source="fIigrEEgvfNoZk3N0VOl-127" target="fIigrEEgvfNoZk3N0VOl-125" edge="1">
          <mxGeometry relative="1" as="geometry">
            <mxPoint x="501" y="-537" as="targetPoint" />
            <mxPoint x="346.27477141825466" y="-432.5438708591223" as="sourcePoint" />
          </mxGeometry>
        </mxCell>
        <mxCell id="fIigrEEgvfNoZk3N0VOl-127" value="id_order" style="ellipse;whiteSpace=wrap;html=1;align=center;" parent="1" vertex="1">
          <mxGeometry x="320" y="-617.5" width="100" height="40" as="geometry" />
        </mxCell>
        <mxCell id="fIigrEEgvfNoZk3N0VOl-128" style="rounded=0;orthogonalLoop=1;jettySize=auto;html=1;exitX=1;exitY=0.5;exitDx=0;exitDy=0;entryX=0;entryY=0.5;entryDx=0;entryDy=0;endArrow=none;endFill=0;" parent="1" source="fIigrEEgvfNoZk3N0VOl-129" target="fIigrEEgvfNoZk3N0VOl-125" edge="1">
          <mxGeometry relative="1" as="geometry" />
        </mxCell>
        <mxCell id="fIigrEEgvfNoZk3N0VOl-129" value="id_user" style="ellipse;whiteSpace=wrap;html=1;align=center;" parent="1" vertex="1">
          <mxGeometry x="237" y="-577.5" width="100" height="40" as="geometry" />
        </mxCell>
        <mxCell id="fIigrEEgvfNoZk3N0VOl-132" style="rounded=0;orthogonalLoop=1;jettySize=auto;html=1;exitX=1;exitY=0.5;exitDx=0;exitDy=0;entryX=0;entryY=0.5;entryDx=0;entryDy=0;endArrow=none;endFill=0;" parent="1" source="fIigrEEgvfNoZk3N0VOl-133" target="fIigrEEgvfNoZk3N0VOl-125" edge="1">
          <mxGeometry relative="1" as="geometry" />
        </mxCell>
        <mxCell id="fIigrEEgvfNoZk3N0VOl-133" value="order_date" style="ellipse;whiteSpace=wrap;html=1;align=center;" parent="1" vertex="1">
          <mxGeometry x="200" y="-528" width="100" height="40" as="geometry" />
        </mxCell>
        <mxCell id="fIigrEEgvfNoZk3N0VOl-137" value="" style="rounded=0;orthogonalLoop=1;jettySize=auto;html=1;endArrow=none;endFill=0;entryX=0.25;entryY=1;entryDx=0;entryDy=0;" parent="1" source="fIigrEEgvfNoZk3N0VOl-136" target="fIigrEEgvfNoZk3N0VOl-125" edge="1">
          <mxGeometry relative="1" as="geometry" />
        </mxCell>
        <mxCell id="fIigrEEgvfNoZk3N0VOl-136" value="invoice" style="ellipse;whiteSpace=wrap;html=1;align=center;" parent="1" vertex="1">
          <mxGeometry x="200" y="-471.5" width="100" height="40" as="geometry" />
        </mxCell>
        <mxCell id="fIigrEEgvfNoZk3N0VOl-138" value="pretest" style="whiteSpace=wrap;html=1;align=center;" parent="1" vertex="1">
          <mxGeometry x="1187" y="-339" width="100" height="40" as="geometry" />
        </mxCell>
        <mxCell id="V3e96ujiatzASSG7UKfO-22" style="rounded=0;orthogonalLoop=1;jettySize=auto;html=1;exitX=1;exitY=0;exitDx=0;exitDy=0;entryX=0.75;entryY=1;entryDx=0;entryDy=0;endArrow=none;endFill=0;" parent="1" source="fIigrEEgvfNoZk3N0VOl-140" target="fIigrEEgvfNoZk3N0VOl-138" edge="1">
          <mxGeometry relative="1" as="geometry" />
        </mxCell>
        <mxCell id="fIigrEEgvfNoZk3N0VOl-140" value="id_pretest" style="ellipse;whiteSpace=wrap;html=1;align=center;" parent="1" vertex="1">
          <mxGeometry x="1127" y="-288" width="100" height="40" as="geometry" />
        </mxCell>
        <mxCell id="V3e96ujiatzASSG7UKfO-23" style="rounded=0;orthogonalLoop=1;jettySize=auto;html=1;exitX=1;exitY=0;exitDx=0;exitDy=0;entryX=0.75;entryY=1;entryDx=0;entryDy=0;endArrow=none;endFill=0;" parent="1" source="fIigrEEgvfNoZk3N0VOl-142" target="fIigrEEgvfNoZk3N0VOl-138" edge="1">
          <mxGeometry relative="1" as="geometry" />
        </mxCell>
        <mxCell id="fIigrEEgvfNoZk3N0VOl-142" value="id_modul_kelas" style="ellipse;whiteSpace=wrap;html=1;align=center;" parent="1" vertex="1">
          <mxGeometry x="1157" y="-239" width="100" height="40" as="geometry" />
        </mxCell>
        <mxCell id="V3e96ujiatzASSG7UKfO-24" style="rounded=0;orthogonalLoop=1;jettySize=auto;html=1;exitX=1;exitY=0;exitDx=0;exitDy=0;entryX=0.75;entryY=1;entryDx=0;entryDy=0;endArrow=none;endFill=0;" parent="1" source="fIigrEEgvfNoZk3N0VOl-144" target="fIigrEEgvfNoZk3N0VOl-138" edge="1">
          <mxGeometry relative="1" as="geometry" />
        </mxCell>
        <mxCell id="fIigrEEgvfNoZk3N0VOl-144" value="soal" style="ellipse;whiteSpace=wrap;html=1;align=center;" parent="1" vertex="1">
          <mxGeometry x="1207" y="-197" width="100" height="40" as="geometry" />
        </mxCell>
        <mxCell id="V3e96ujiatzASSG7UKfO-27" style="rounded=0;orthogonalLoop=1;jettySize=auto;html=1;exitX=0;exitY=0.5;exitDx=0;exitDy=0;entryX=1;entryY=0.5;entryDx=0;entryDy=0;endArrow=none;endFill=0;" parent="1" source="fIigrEEgvfNoZk3N0VOl-146" target="fIigrEEgvfNoZk3N0VOl-138" edge="1">
          <mxGeometry relative="1" as="geometry" />
        </mxCell>
        <mxCell id="fIigrEEgvfNoZk3N0VOl-146" value="opsi_a" style="ellipse;whiteSpace=wrap;html=1;align=center;" parent="1" vertex="1">
          <mxGeometry x="1397" y="-315.5" width="100" height="40" as="geometry" />
        </mxCell>
        <mxCell id="V3e96ujiatzASSG7UKfO-28" style="rounded=0;orthogonalLoop=1;jettySize=auto;html=1;exitX=0;exitY=0;exitDx=0;exitDy=0;entryX=1;entryY=0.5;entryDx=0;entryDy=0;endArrow=none;endFill=0;" parent="1" source="fIigrEEgvfNoZk3N0VOl-148" target="fIigrEEgvfNoZk3N0VOl-138" edge="1">
          <mxGeometry relative="1" as="geometry" />
        </mxCell>
        <mxCell id="fIigrEEgvfNoZk3N0VOl-148" value="opsi_b" style="ellipse;whiteSpace=wrap;html=1;align=center;" parent="1" vertex="1">
          <mxGeometry x="1407" y="-260.5" width="100" height="40" as="geometry" />
        </mxCell>
        <mxCell id="V3e96ujiatzASSG7UKfO-29" style="rounded=0;orthogonalLoop=1;jettySize=auto;html=1;entryX=1;entryY=0.5;entryDx=0;entryDy=0;endArrow=none;endFill=0;" parent="1" source="fIigrEEgvfNoZk3N0VOl-150" target="fIigrEEgvfNoZk3N0VOl-138" edge="1">
          <mxGeometry relative="1" as="geometry" />
        </mxCell>
        <mxCell id="fIigrEEgvfNoZk3N0VOl-150" value="opsi_c" style="ellipse;whiteSpace=wrap;html=1;align=center;" parent="1" vertex="1">
          <mxGeometry x="1397" y="-210.5" width="100" height="40" as="geometry" />
        </mxCell>
        <mxCell id="V3e96ujiatzASSG7UKfO-30" style="rounded=0;orthogonalLoop=1;jettySize=auto;html=1;exitX=0;exitY=0;exitDx=0;exitDy=0;entryX=1;entryY=0.5;entryDx=0;entryDy=0;endArrow=none;endFill=0;" parent="1" source="fIigrEEgvfNoZk3N0VOl-151" target="fIigrEEgvfNoZk3N0VOl-138" edge="1">
          <mxGeometry relative="1" as="geometry" />
        </mxCell>
        <mxCell id="fIigrEEgvfNoZk3N0VOl-151" value="opsi_d" style="ellipse;whiteSpace=wrap;html=1;align=center;" parent="1" vertex="1">
          <mxGeometry x="1387" y="-157" width="100" height="40" as="geometry" />
        </mxCell>
        <mxCell id="V3e96ujiatzASSG7UKfO-25" style="rounded=0;orthogonalLoop=1;jettySize=auto;html=1;exitX=1;exitY=0;exitDx=0;exitDy=0;entryX=0.75;entryY=1;entryDx=0;entryDy=0;endArrow=none;endFill=0;" parent="1" source="fIigrEEgvfNoZk3N0VOl-152" target="fIigrEEgvfNoZk3N0VOl-138" edge="1">
          <mxGeometry relative="1" as="geometry" />
        </mxCell>
        <mxCell id="fIigrEEgvfNoZk3N0VOl-152" value="jawaban_benar" style="ellipse;whiteSpace=wrap;html=1;align=center;" parent="1" vertex="1">
          <mxGeometry x="1267" y="-157" width="100" height="40" as="geometry" />
        </mxCell>
        <mxCell id="fIigrEEgvfNoZk3N0VOl-158" value="material_kelas" style="whiteSpace=wrap;html=1;align=center;" parent="1" vertex="1">
          <mxGeometry x="1124.5" y="-471.5" width="100" height="40" as="geometry" />
        </mxCell>
        <mxCell id="V3e96ujiatzASSG7UKfO-32" style="rounded=0;orthogonalLoop=1;jettySize=auto;html=1;exitX=0.5;exitY=1;exitDx=0;exitDy=0;entryX=0.5;entryY=0;entryDx=0;entryDy=0;endArrow=none;endFill=0;" parent="1" source="fIigrEEgvfNoZk3N0VOl-160" target="fIigrEEgvfNoZk3N0VOl-158" edge="1">
          <mxGeometry relative="1" as="geometry" />
        </mxCell>
        <mxCell id="fIigrEEgvfNoZk3N0VOl-160" value="id_material_video" style="ellipse;whiteSpace=wrap;html=1;align=center;" parent="1" vertex="1">
          <mxGeometry x="1087" y="-568" width="100" height="40" as="geometry" />
        </mxCell>
        <mxCell id="V3e96ujiatzASSG7UKfO-33" style="rounded=0;orthogonalLoop=1;jettySize=auto;html=1;exitX=0;exitY=1;exitDx=0;exitDy=0;entryX=0.5;entryY=0;entryDx=0;entryDy=0;endArrow=none;endFill=0;" parent="1" source="fIigrEEgvfNoZk3N0VOl-162" target="fIigrEEgvfNoZk3N0VOl-158" edge="1">
          <mxGeometry relative="1" as="geometry" />
        </mxCell>
        <mxCell id="fIigrEEgvfNoZk3N0VOl-162" value="url_video" style="ellipse;whiteSpace=wrap;html=1;align=center;" parent="1" vertex="1">
          <mxGeometry x="1227" y="-551.5" width="100" height="40" as="geometry" />
        </mxCell>
        <mxCell id="V3e96ujiatzASSG7UKfO-34" style="rounded=0;orthogonalLoop=1;jettySize=auto;html=1;exitX=0;exitY=0.5;exitDx=0;exitDy=0;entryX=1;entryY=0.5;entryDx=0;entryDy=0;endArrow=none;endFill=0;" parent="1" source="fIigrEEgvfNoZk3N0VOl-164" target="fIigrEEgvfNoZk3N0VOl-158" edge="1">
          <mxGeometry relative="1" as="geometry" />
        </mxCell>
        <mxCell id="fIigrEEgvfNoZk3N0VOl-164" value="rangkuman" style="ellipse;whiteSpace=wrap;html=1;align=center;" parent="1" vertex="1">
          <mxGeometry x="1287" y="-499.5" width="100" height="40" as="geometry" />
        </mxCell>
        <mxCell id="V3e96ujiatzASSG7UKfO-35" style="rounded=0;orthogonalLoop=1;jettySize=auto;html=1;exitX=0;exitY=0.5;exitDx=0;exitDy=0;entryX=1;entryY=0.5;entryDx=0;entryDy=0;endArrow=none;endFill=0;" parent="1" source="fIigrEEgvfNoZk3N0VOl-165" target="fIigrEEgvfNoZk3N0VOl-158" edge="1">
          <mxGeometry relative="1" as="geometry" />
        </mxCell>
        <mxCell id="fIigrEEgvfNoZk3N0VOl-165" value="quiz" style="ellipse;whiteSpace=wrap;html=1;align=center;" parent="1" vertex="1">
          <mxGeometry x="1287" y="-431.5" width="100" height="40" as="geometry" />
        </mxCell>
        <mxCell id="fIigrEEgvfNoZk3N0VOl-170" value="modul_kelas" style="whiteSpace=wrap;html=1;align=center;" parent="1" vertex="1">
          <mxGeometry x="937" y="-402.5" width="100" height="40" as="geometry" />
        </mxCell>
        <mxCell id="fIigrEEgvfNoZk3N0VOl-171" style="rounded=0;orthogonalLoop=1;jettySize=auto;html=1;exitX=0.5;exitY=0;exitDx=0;exitDy=0;entryX=0.5;entryY=1;entryDx=0;entryDy=0;endArrow=none;endFill=0;" parent="1" source="fIigrEEgvfNoZk3N0VOl-172" target="fIigrEEgvfNoZk3N0VOl-170" edge="1">
          <mxGeometry relative="1" as="geometry" />
        </mxCell>
        <mxCell id="fIigrEEgvfNoZk3N0VOl-172" value="id_modul_kelas" style="ellipse;whiteSpace=wrap;html=1;align=center;" parent="1" vertex="1">
          <mxGeometry x="807" y="-328" width="100" height="40" as="geometry" />
        </mxCell>
        <mxCell id="fIigrEEgvfNoZk3N0VOl-173" style="rounded=0;orthogonalLoop=1;jettySize=auto;html=1;exitX=1;exitY=0;exitDx=0;exitDy=0;endArrow=none;endFill=0;entryX=0.5;entryY=1;entryDx=0;entryDy=0;" parent="1" source="fIigrEEgvfNoZk3N0VOl-174" target="fIigrEEgvfNoZk3N0VOl-170" edge="1">
          <mxGeometry relative="1" as="geometry" />
        </mxCell>
        <mxCell id="fIigrEEgvfNoZk3N0VOl-174" value="id_produk" style="ellipse;whiteSpace=wrap;html=1;align=center;" parent="1" vertex="1">
          <mxGeometry x="817" y="-279" width="100" height="40" as="geometry" />
        </mxCell>
        <mxCell id="fIigrEEgvfNoZk3N0VOl-175" style="rounded=0;orthogonalLoop=1;jettySize=auto;html=1;exitX=0.5;exitY=0;exitDx=0;exitDy=0;entryX=0.5;entryY=1;entryDx=0;entryDy=0;endArrow=none;endFill=0;startArrow=none;startFill=0;" parent="1" source="fIigrEEgvfNoZk3N0VOl-176" target="fIigrEEgvfNoZk3N0VOl-170" edge="1">
          <mxGeometry relative="1" as="geometry" />
        </mxCell>
        <mxCell id="fIigrEEgvfNoZk3N0VOl-176" value="id_material" style="ellipse;whiteSpace=wrap;html=1;align=center;" parent="1" vertex="1">
          <mxGeometry x="876" y="-220.5" width="100" height="40" as="geometry" />
        </mxCell>
        <mxCell id="fIigrEEgvfNoZk3N0VOl-192" value="kategori_kelas" style="whiteSpace=wrap;html=1;align=center;" parent="1" vertex="1">
          <mxGeometry x="1064.5" y="-775" width="100" height="40" as="geometry" />
        </mxCell>
        <mxCell id="fIigrEEgvfNoZk3N0VOl-193" style="rounded=0;orthogonalLoop=1;jettySize=auto;html=1;exitX=0;exitY=1;exitDx=0;exitDy=0;entryX=0.5;entryY=0;entryDx=0;entryDy=0;endArrow=none;endFill=0;" parent="1" source="fIigrEEgvfNoZk3N0VOl-194" target="fIigrEEgvfNoZk3N0VOl-192" edge="1">
          <mxGeometry relative="1" as="geometry" />
        </mxCell>
        <mxCell id="fIigrEEgvfNoZk3N0VOl-194" value="id_kategori" style="ellipse;whiteSpace=wrap;html=1;align=center;" parent="1" vertex="1">
          <mxGeometry x="1162" y="-840" width="100" height="40" as="geometry" />
        </mxCell>
        <mxCell id="fIigrEEgvfNoZk3N0VOl-195" style="rounded=0;orthogonalLoop=1;jettySize=auto;html=1;exitX=0;exitY=1;exitDx=0;exitDy=0;endArrow=none;endFill=0;entryX=1;entryY=0.5;entryDx=0;entryDy=0;" parent="1" source="fIigrEEgvfNoZk3N0VOl-196" target="fIigrEEgvfNoZk3N0VOl-192" edge="1">
          <mxGeometry relative="1" as="geometry" />
        </mxCell>
        <mxCell id="fIigrEEgvfNoZk3N0VOl-196" value="id_produk" style="ellipse;whiteSpace=wrap;html=1;align=center;" parent="1" vertex="1">
          <mxGeometry x="1207" y="-800" width="100" height="40" as="geometry" />
        </mxCell>
        <mxCell id="fIigrEEgvfNoZk3N0VOl-197" style="rounded=0;orthogonalLoop=1;jettySize=auto;html=1;exitX=0;exitY=0;exitDx=0;exitDy=0;entryX=1;entryY=0.5;entryDx=0;entryDy=0;endArrow=none;endFill=0;startArrow=none;startFill=0;" parent="1" source="fIigrEEgvfNoZk3N0VOl-198" target="fIigrEEgvfNoZk3N0VOl-192" edge="1">
          <mxGeometry relative="1" as="geometry" />
        </mxCell>
        <mxCell id="fIigrEEgvfNoZk3N0VOl-198" value="bidang_studi" style="ellipse;whiteSpace=wrap;html=1;align=center;" parent="1" vertex="1">
          <mxGeometry x="1207" y="-734" width="100" height="40" as="geometry" />
        </mxCell>
        <mxCell id="fIigrEEgvfNoZk3N0VOl-199" style="rounded=0;orthogonalLoop=1;jettySize=auto;html=1;exitX=0;exitY=0;exitDx=0;exitDy=0;entryX=0.5;entryY=1;entryDx=0;entryDy=0;endArrow=none;endFill=0;" parent="1" source="fIigrEEgvfNoZk3N0VOl-200" target="fIigrEEgvfNoZk3N0VOl-192" edge="1">
          <mxGeometry relative="1" as="geometry" />
        </mxCell>
        <mxCell id="fIigrEEgvfNoZk3N0VOl-200" value="durasi" style="ellipse;whiteSpace=wrap;html=1;align=center;" parent="1" vertex="1">
          <mxGeometry x="1157" y="-694" width="100" height="40" as="geometry" />
        </mxCell>
        <mxCell id="WLzVadDFJiQFFKAy1ZBl-15" value="" style="fontSize=12;html=1;endArrow=ERzeroToMany;startArrow=ERmandOne;rounded=0;exitX=0;exitY=0.75;exitDx=0;exitDy=0;entryX=1;entryY=0;entryDx=0;entryDy=0;" parent="1" source="grffc1_wKBLmNfHmWr4K-23" target="grffc1_wKBLmNfHmWr4K-1" edge="1">
          <mxGeometry width="100" height="100" relative="1" as="geometry">
            <mxPoint x="957" y="-814" as="sourcePoint" />
            <mxPoint x="937" y="-834" as="targetPoint" />
          </mxGeometry>
        </mxCell>
        <mxCell id="WLzVadDFJiQFFKAy1ZBl-16" value="" style="edgeStyle=entityRelationEdgeStyle;fontSize=12;html=1;endArrow=ERzeroToMany;startArrow=ERmandOne;rounded=0;entryX=0;entryY=0.5;entryDx=0;entryDy=0;exitX=1;exitY=0.5;exitDx=0;exitDy=0;" parent="1" source="4vs3T1weUWw03hKmJ2pg-3" target="grffc1_wKBLmNfHmWr4K-1" edge="1">
          <mxGeometry width="100" height="100" relative="1" as="geometry">
            <mxPoint x="517" y="-714" as="sourcePoint" />
            <mxPoint x="727" y="-804" as="targetPoint" />
          </mxGeometry>
        </mxCell>
        <mxCell id="WLzVadDFJiQFFKAy1ZBl-29" value="order_item" style="whiteSpace=wrap;html=1;align=center;" parent="1" vertex="1">
          <mxGeometry x="707" y="-555.5" width="100" height="40" as="geometry" />
        </mxCell>
        <mxCell id="WLzVadDFJiQFFKAy1ZBl-39" style="rounded=0;orthogonalLoop=1;jettySize=auto;html=1;entryX=1;entryY=0.5;entryDx=0;entryDy=0;endArrow=none;endFill=0;" parent="1" source="WLzVadDFJiQFFKAy1ZBl-33" target="WLzVadDFJiQFFKAy1ZBl-29" edge="1">
          <mxGeometry relative="1" as="geometry" />
        </mxCell>
        <mxCell id="WLzVadDFJiQFFKAy1ZBl-33" value="id_order_item" style="ellipse;whiteSpace=wrap;html=1;align=center;" parent="1" vertex="1">
          <mxGeometry x="847" y="-595.5" width="100" height="40" as="geometry" />
        </mxCell>
        <mxCell id="WLzVadDFJiQFFKAy1ZBl-40" style="rounded=0;orthogonalLoop=1;jettySize=auto;html=1;exitX=0;exitY=0;exitDx=0;exitDy=0;entryX=1;entryY=0.5;entryDx=0;entryDy=0;endArrow=none;endFill=0;" parent="1" source="WLzVadDFJiQFFKAy1ZBl-34" target="WLzVadDFJiQFFKAy1ZBl-29" edge="1">
          <mxGeometry relative="1" as="geometry">
            <mxPoint x="747" y="-541.5" as="targetPoint" />
          </mxGeometry>
        </mxCell>
        <mxCell id="WLzVadDFJiQFFKAy1ZBl-34" value="id_order" style="ellipse;whiteSpace=wrap;html=1;align=center;" parent="1" vertex="1">
          <mxGeometry x="847" y="-517.5" width="100" height="40" as="geometry" />
        </mxCell>
        <mxCell id="WLzVadDFJiQFFKAy1ZBl-41" style="rounded=0;orthogonalLoop=1;jettySize=auto;html=1;entryX=1;entryY=0.5;entryDx=0;entryDy=0;endArrow=none;endFill=0;" parent="1" source="WLzVadDFJiQFFKAy1ZBl-35" target="WLzVadDFJiQFFKAy1ZBl-29" edge="1">
          <mxGeometry relative="1" as="geometry" />
        </mxCell>
        <mxCell id="WLzVadDFJiQFFKAy1ZBl-35" value="id_produk" style="ellipse;whiteSpace=wrap;html=1;align=center;" parent="1" vertex="1">
          <mxGeometry x="937" y="-556.5" width="100" height="40" as="geometry" />
        </mxCell>
        <mxCell id="WLzVadDFJiQFFKAy1ZBl-36" style="rounded=0;orthogonalLoop=1;jettySize=auto;html=1;entryX=0.5;entryY=1;entryDx=0;entryDy=0;endArrow=none;endFill=0;" parent="1" source="WLzVadDFJiQFFKAy1ZBl-37" target="fIigrEEgvfNoZk3N0VOl-114" edge="1">
          <mxGeometry relative="1" as="geometry">
            <mxPoint x="554" y="-246.5" as="targetPoint" />
          </mxGeometry>
        </mxCell>
        <mxCell id="WLzVadDFJiQFFKAy1ZBl-37" value="status_bayar" style="ellipse;whiteSpace=wrap;html=1;align=center;" parent="1" vertex="1">
          <mxGeometry x="327" y="-220.5" width="100" height="40" as="geometry" />
        </mxCell>
        <mxCell id="WLzVadDFJiQFFKAy1ZBl-42" value="" style="fontSize=12;html=1;endArrow=ERzeroToMany;startArrow=ERmandOne;rounded=0;exitX=1;exitY=1;exitDx=0;exitDy=0;entryX=0.5;entryY=0;entryDx=0;entryDy=0;" parent="1" source="4vs3T1weUWw03hKmJ2pg-3" target="fIigrEEgvfNoZk3N0VOl-125" edge="1">
          <mxGeometry width="100" height="100" relative="1" as="geometry">
            <mxPoint x="600" y="-604" as="sourcePoint" />
            <mxPoint x="700" y="-704" as="targetPoint" />
          </mxGeometry>
        </mxCell>
        <mxCell id="WLzVadDFJiQFFKAy1ZBl-43" value="" style="fontSize=12;html=1;endArrow=ERzeroToMany;endFill=1;rounded=0;exitX=0;exitY=1;exitDx=0;exitDy=0;entryX=0.5;entryY=0;entryDx=0;entryDy=0;startArrow=ERzeroToOne;startFill=0;" parent="1" source="grffc1_wKBLmNfHmWr4K-1" target="WLzVadDFJiQFFKAy1ZBl-29" edge="1">
          <mxGeometry width="100" height="100" relative="1" as="geometry">
            <mxPoint x="547" y="-564" as="sourcePoint" />
            <mxPoint x="647" y="-664" as="targetPoint" />
          </mxGeometry>
        </mxCell>
        <mxCell id="WLzVadDFJiQFFKAy1ZBl-44" value="" style="edgeStyle=entityRelationEdgeStyle;fontSize=12;html=1;endArrow=ERzeroToMany;endFill=1;rounded=0;exitX=1;exitY=0.5;exitDx=0;exitDy=0;entryX=0;entryY=0.5;entryDx=0;entryDy=0;startArrow=ERone;startFill=0;" parent="1" source="fIigrEEgvfNoZk3N0VOl-125" target="WLzVadDFJiQFFKAy1ZBl-29" edge="1">
          <mxGeometry width="100" height="100" relative="1" as="geometry">
            <mxPoint x="545" y="-604.5" as="sourcePoint" />
            <mxPoint x="645" y="-704.5" as="targetPoint" />
          </mxGeometry>
        </mxCell>
        <mxCell id="WLzVadDFJiQFFKAy1ZBl-45" value="" style="fontSize=12;html=1;endArrow=ERmandOne;startArrow=ERmandOne;rounded=0;exitX=0.5;exitY=0;exitDx=0;exitDy=0;entryX=0.5;entryY=1;entryDx=0;entryDy=0;" parent="1" source="fIigrEEgvfNoZk3N0VOl-114" target="fIigrEEgvfNoZk3N0VOl-125" edge="1">
          <mxGeometry width="100" height="100" relative="1" as="geometry">
            <mxPoint x="588" y="-502.5" as="sourcePoint" />
            <mxPoint x="688" y="-602.5" as="targetPoint" />
          </mxGeometry>
        </mxCell>
        <mxCell id="WLzVadDFJiQFFKAy1ZBl-47" style="rounded=0;orthogonalLoop=1;jettySize=auto;html=1;exitX=1;exitY=0;exitDx=0;exitDy=0;entryX=0.25;entryY=1;entryDx=0;entryDy=0;endArrow=none;endFill=0;" parent="1" source="WLzVadDFJiQFFKAy1ZBl-46" target="fIigrEEgvfNoZk3N0VOl-125" edge="1">
          <mxGeometry relative="1" as="geometry" />
        </mxCell>
        <mxCell id="WLzVadDFJiQFFKAy1ZBl-46" value="status_order" style="ellipse;whiteSpace=wrap;html=1;align=center;" parent="1" vertex="1">
          <mxGeometry x="300" y="-454" width="100" height="40" as="geometry" />
        </mxCell>
        <mxCell id="WLzVadDFJiQFFKAy1ZBl-64" value="kelas_saya" style="whiteSpace=wrap;html=1;align=center;" parent="1" vertex="1">
          <mxGeometry x="707" y="-402.5" width="100" height="40" as="geometry" />
        </mxCell>
        <mxCell id="WLzVadDFJiQFFKAy1ZBl-65" style="rounded=0;orthogonalLoop=1;jettySize=auto;html=1;exitX=0.5;exitY=1;exitDx=0;exitDy=0;entryX=0;entryY=0.5;entryDx=0;entryDy=0;endArrow=none;endFill=0;" parent="1" source="WLzVadDFJiQFFKAy1ZBl-66" target="WLzVadDFJiQFFKAy1ZBl-64" edge="1">
          <mxGeometry relative="1" as="geometry">
            <mxPoint x="693" y="-371.5" as="targetPoint" />
          </mxGeometry>
        </mxCell>
        <mxCell id="WLzVadDFJiQFFKAy1ZBl-66" value="id_kelas_saya" style="ellipse;whiteSpace=wrap;html=1;align=center;" parent="1" vertex="1">
          <mxGeometry x="607" y="-447.5" width="100" height="40" as="geometry" />
        </mxCell>
        <mxCell id="WLzVadDFJiQFFKAy1ZBl-67" style="rounded=0;orthogonalLoop=1;jettySize=auto;html=1;exitX=1;exitY=1;exitDx=0;exitDy=0;endArrow=none;endFill=0;entryX=0;entryY=0.5;entryDx=0;entryDy=0;" parent="1" source="WLzVadDFJiQFFKAy1ZBl-68" target="WLzVadDFJiQFFKAy1ZBl-64" edge="1">
          <mxGeometry relative="1" as="geometry">
            <mxPoint x="693" y="-371.5" as="targetPoint" />
          </mxGeometry>
        </mxCell>
        <mxCell id="WLzVadDFJiQFFKAy1ZBl-68" value="id_order_item" style="ellipse;whiteSpace=wrap;html=1;align=center;" parent="1" vertex="1">
          <mxGeometry x="497" y="-447.5" width="100" height="40" as="geometry" />
        </mxCell>
        <mxCell id="WLzVadDFJiQFFKAy1ZBl-71" style="rounded=0;orthogonalLoop=1;jettySize=auto;html=1;exitX=1;exitY=0;exitDx=0;exitDy=0;entryX=0.5;entryY=1;entryDx=0;entryDy=0;endArrow=none;endFill=0;" parent="1" source="WLzVadDFJiQFFKAy1ZBl-72" target="WLzVadDFJiQFFKAy1ZBl-64" edge="1">
          <mxGeometry relative="1" as="geometry" />
        </mxCell>
        <mxCell id="WLzVadDFJiQFFKAy1ZBl-72" value="status_kelas" style="ellipse;whiteSpace=wrap;html=1;align=center;" parent="1" vertex="1">
          <mxGeometry x="577" y="-351.5" width="100" height="40" as="geometry" />
        </mxCell>
        <mxCell id="WLzVadDFJiQFFKAy1ZBl-77" style="rounded=0;orthogonalLoop=1;jettySize=auto;html=1;entryX=0.5;entryY=1;entryDx=0;entryDy=0;endArrow=none;endFill=0;" parent="1" source="WLzVadDFJiQFFKAy1ZBl-73" target="WLzVadDFJiQFFKAy1ZBl-64" edge="1">
          <mxGeometry relative="1" as="geometry" />
        </mxCell>
        <mxCell id="WLzVadDFJiQFFKAy1ZBl-73" value="sertifikat" style="ellipse;whiteSpace=wrap;html=1;align=center;" parent="1" vertex="1">
          <mxGeometry x="664" y="-321.5" width="100" height="40" as="geometry" />
        </mxCell>
        <mxCell id="WLzVadDFJiQFFKAy1ZBl-76" style="rounded=0;orthogonalLoop=1;jettySize=auto;html=1;entryX=0.5;entryY=1;entryDx=0;entryDy=0;endArrow=none;endFill=0;" parent="1" source="WLzVadDFJiQFFKAy1ZBl-75" target="fIigrEEgvfNoZk3N0VOl-170" edge="1">
          <mxGeometry relative="1" as="geometry" />
        </mxCell>
        <mxCell id="WLzVadDFJiQFFKAy1ZBl-75" value="jumlah_modul" style="ellipse;whiteSpace=wrap;html=1;align=center;" parent="1" vertex="1">
          <mxGeometry x="997" y="-239" width="100" height="40" as="geometry" />
        </mxCell>
        <mxCell id="V3e96ujiatzASSG7UKfO-4" value="" style="fontSize=12;html=1;endArrow=ERzeroToMany;startArrow=ERmandOne;rounded=0;exitX=1;exitY=0;exitDx=0;exitDy=0;entryX=0.25;entryY=1;entryDx=0;entryDy=0;" parent="1" source="4vs3T1weUWw03hKmJ2pg-3" target="fIigrEEgvfNoZk3N0VOl-100" edge="1">
          <mxGeometry width="100" height="100" relative="1" as="geometry">
            <mxPoint x="457" y="-904" as="sourcePoint" />
            <mxPoint x="557" y="-1004" as="targetPoint" />
          </mxGeometry>
        </mxCell>
        <mxCell id="V3e96ujiatzASSG7UKfO-5" value="" style="fontSize=12;html=1;endArrow=ERzeroToMany;startArrow=ERmandOne;rounded=0;exitX=0;exitY=0;exitDx=0;exitDy=0;entryX=0.75;entryY=1;entryDx=0;entryDy=0;" parent="1" source="grffc1_wKBLmNfHmWr4K-1" target="fIigrEEgvfNoZk3N0VOl-100" edge="1">
          <mxGeometry width="100" height="100" relative="1" as="geometry">
            <mxPoint x="447" y="-764" as="sourcePoint" />
            <mxPoint x="533" y="-944" as="targetPoint" />
          </mxGeometry>
        </mxCell>
        <mxCell id="V3e96ujiatzASSG7UKfO-8" value="" style="fontSize=12;html=1;endArrow=ERoneToMany;startArrow=ERmandOne;rounded=0;exitX=0;exitY=0.5;exitDx=0;exitDy=0;entryX=1;entryY=0.5;entryDx=0;entryDy=0;" parent="1" source="fIigrEEgvfNoZk3N0VOl-192" target="grffc1_wKBLmNfHmWr4K-1" edge="1">
          <mxGeometry width="100" height="100" relative="1" as="geometry">
            <mxPoint x="972" y="-710" as="sourcePoint" />
            <mxPoint x="907" y="-744" as="targetPoint" />
          </mxGeometry>
        </mxCell>
        <mxCell id="V3e96ujiatzASSG7UKfO-11" style="rounded=0;orthogonalLoop=1;jettySize=auto;html=1;exitX=0;exitY=1;exitDx=0;exitDy=0;entryX=0;entryY=0.5;entryDx=0;entryDy=0;endArrow=none;endFill=0;" parent="1" source="V3e96ujiatzASSG7UKfO-10" target="WLzVadDFJiQFFKAy1ZBl-64" edge="1">
          <mxGeometry relative="1" as="geometry">
            <mxPoint x="693" y="-371.5" as="targetPoint" />
          </mxGeometry>
        </mxCell>
        <mxCell id="V3e96ujiatzASSG7UKfO-10" value="id_user" style="ellipse;whiteSpace=wrap;html=1;align=center;" parent="1" vertex="1">
          <mxGeometry x="520" y="-391.5" width="100" height="40" as="geometry" />
        </mxCell>
        <mxCell id="V3e96ujiatzASSG7UKfO-12" value="" style="fontSize=12;html=1;endArrow=ERoneToMany;startArrow=ERmandOne;rounded=0;exitX=0.5;exitY=0;exitDx=0;exitDy=0;entryX=0.5;entryY=1;entryDx=0;entryDy=0;endFill=0;" parent="1" source="WLzVadDFJiQFFKAy1ZBl-64" target="WLzVadDFJiQFFKAy1ZBl-29" edge="1">
          <mxGeometry width="100" height="100" relative="1" as="geometry">
            <mxPoint x="697" y="-437.5" as="sourcePoint" />
            <mxPoint x="797" y="-537.5" as="targetPoint" />
          </mxGeometry>
        </mxCell>
        <mxCell id="V3e96ujiatzASSG7UKfO-13" value="" style="fontSize=12;html=1;endArrow=ERoneToMany;startArrow=ERmandOne;rounded=0;entryX=0;entryY=0.5;entryDx=0;entryDy=0;exitX=1;exitY=0.5;exitDx=0;exitDy=0;" parent="1" source="WLzVadDFJiQFFKAy1ZBl-64" target="fIigrEEgvfNoZk3N0VOl-170" edge="1">
          <mxGeometry width="100" height="100" relative="1" as="geometry">
            <mxPoint x="687" y="-384" as="sourcePoint" />
            <mxPoint x="787" y="-484" as="targetPoint" />
          </mxGeometry>
        </mxCell>
        <mxCell id="V3e96ujiatzASSG7UKfO-18" style="rounded=0;orthogonalLoop=1;jettySize=auto;html=1;exitX=0.5;exitY=0;exitDx=0;exitDy=0;entryX=0.5;entryY=1;entryDx=0;entryDy=0;endArrow=none;endFill=0;" parent="1" source="V3e96ujiatzASSG7UKfO-16" target="fIigrEEgvfNoZk3N0VOl-170" edge="1">
          <mxGeometry relative="1" as="geometry" />
        </mxCell>
        <mxCell id="V3e96ujiatzASSG7UKfO-16" value="judul_modul" style="ellipse;whiteSpace=wrap;html=1;align=center;" parent="1" vertex="1">
          <mxGeometry x="937" y="-180.5" width="100" height="40" as="geometry" />
        </mxCell>
        <mxCell id="V3e96ujiatzASSG7UKfO-31" style="edgeStyle=orthogonalEdgeStyle;rounded=0;orthogonalLoop=1;jettySize=auto;html=1;exitX=0.5;exitY=1;exitDx=0;exitDy=0;" parent="1" source="fIigrEEgvfNoZk3N0VOl-152" target="fIigrEEgvfNoZk3N0VOl-152" edge="1">
          <mxGeometry relative="1" as="geometry" />
        </mxCell>
        <mxCell id="V3e96ujiatzASSG7UKfO-37" style="rounded=0;orthogonalLoop=1;jettySize=auto;html=1;entryX=0.5;entryY=0;entryDx=0;entryDy=0;endArrow=none;endFill=0;" parent="1" source="V3e96ujiatzASSG7UKfO-36" target="fIigrEEgvfNoZk3N0VOl-158" edge="1">
          <mxGeometry relative="1" as="geometry" />
        </mxCell>
        <mxCell id="V3e96ujiatzASSG7UKfO-36" value="id_modul_kelas" style="ellipse;whiteSpace=wrap;html=1;align=center;" parent="1" vertex="1">
          <mxGeometry x="1187" y="-608" width="100" height="40" as="geometry" />
        </mxCell>
        <mxCell id="V3e96ujiatzASSG7UKfO-38" value="" style="fontSize=12;html=1;endArrow=ERzeroToOne;startArrow=ERmandOne;rounded=0;exitX=1;exitY=0.75;exitDx=0;exitDy=0;entryX=0;entryY=0.5;entryDx=0;entryDy=0;" parent="1" source="fIigrEEgvfNoZk3N0VOl-170" target="fIigrEEgvfNoZk3N0VOl-138" edge="1">
          <mxGeometry width="100" height="100" relative="1" as="geometry">
            <mxPoint x="1117" y="-324" as="sourcePoint" />
            <mxPoint x="1217" y="-424" as="targetPoint" />
          </mxGeometry>
        </mxCell>
        <mxCell id="V3e96ujiatzASSG7UKfO-39" value="" style="fontSize=12;html=1;endArrow=ERoneToMany;startArrow=ERmandOne;rounded=0;entryX=0;entryY=0.5;entryDx=0;entryDy=0;exitX=1;exitY=0.25;exitDx=0;exitDy=0;" parent="1" source="fIigrEEgvfNoZk3N0VOl-170" target="fIigrEEgvfNoZk3N0VOl-158" edge="1">
          <mxGeometry width="100" height="100" relative="1" as="geometry">
            <mxPoint x="1027" y="-418" as="sourcePoint" />
            <mxPoint x="1157" y="-418" as="targetPoint" />
          </mxGeometry>
        </mxCell>
        <mxCell id="jN81mF2OsJX1wYY92idx-2" style="rounded=0;orthogonalLoop=1;jettySize=auto;html=1;exitX=0.5;exitY=1;exitDx=0;exitDy=0;entryX=0.5;entryY=0;entryDx=0;entryDy=0;endArrow=none;endFill=0;" parent="1" source="jN81mF2OsJX1wYY92idx-1" target="grffc1_wKBLmNfHmWr4K-23" edge="1">
          <mxGeometry relative="1" as="geometry" />
        </mxCell>
        <mxCell id="jN81mF2OsJX1wYY92idx-1" value="avatar" style="ellipse;whiteSpace=wrap;html=1;align=center;" parent="1" vertex="1">
          <mxGeometry x="1024.5" y="-1030" width="100" height="46" as="geometry" />
        </mxCell>
      </root>
    </mxGraphModel>
  </diagram>
</mxfile>
